<?xml version="1.0" encoding="UTF-8"?>
<svg width="22px" height="22px" viewBox="0 0 22 22" version="1.1" xmlns="http://www.w3.org/2000/svg" xmlns:xlink="http://www.w3.org/1999/xlink">
    <!-- Generator: Sketch Beta 43 (38998) - http://www.bohemiancoding.com/sketch -->
    <title>Fill 2</title>
    <desc>Created with Sketch Beta.</desc>
    <defs></defs>
    <g id="Page-1" stroke="none" stroke-width="1" fill="none" fill-rule="evenodd">
        <g id="Digital-Wall-1" transform="translate(-494.000000, -901.000000)" fill="#3B5998">
            <path d="M514.785775,901 L495.214304,901 C494.543623,901 494,901.543534 494,902.214273 L494,921.785807 C494,922.456306 494.543623,923 495.214304,923 L505.75087,923 L505.75087,914.480457 L502.883935,914.480457 L502.883935,911.1602 L505.75087,911.1602 L505.75087,908.711623 C505.75087,905.8701 507.486399,904.322812 510.021341,904.322812 C511.235486,904.322812 512.27913,904.413228 512.583225,904.453608 L512.583225,907.423214 L510.825138,907.424012 C509.44663,907.424012 509.179601,908.07911 509.179601,909.040409 L509.179601,911.1602 L512.467406,911.1602 L512.039362,914.480457 L509.179601,914.480457 L509.179601,923 L514.785775,923 C515.456297,923 516,922.456306 516,921.785807 L516,902.214273 C516,901.543534 515.456297,901 514.785775,901" id="Fill-2"></path>
        </g>
    </g>
</svg>