<?xml version="1.0" encoding="UTF-8"?>
<svg width="22px" height="22px" viewBox="0 0 22 22" version="1.1" xmlns="http://www.w3.org/2000/svg" xmlns:xlink="http://www.w3.org/1999/xlink">
    <!-- Generator: Sketch Beta 43 (38998) - http://www.bohemiancoding.com/sketch -->
    <title>Combined Shape</title>
    <desc>Created with Sketch Beta.</desc>
    <defs></defs>
    <g id="Page-1" stroke="none" stroke-width="1" fill="none" fill-rule="evenodd">
        <g id="Digital-Wall-Post" transform="translate(-726.000000, -213.000000)" fill="#DD4B39">
            <path d="M737,235 C730.92475,235 726,230.07525 726,224 C726,217.92475 730.92475,213 737,213 C743.07525,213 748,217.92475 748,224 C748,230.07525 743.07525,235 737,235 Z M730.89115,224.012475 C730.89115,223.667225 730.95365,223.332975 731.05615,223.021225 C731.47115,221.812725 732.62015,220.938225 733.97365,220.938225 C734.93465,220.938225 735.58315,221.344725 735.95265,221.684475 L737.3974,220.303225 C736.51015,219.495725 735.35565,218.999975 733.97365,218.999975 C731.97165,218.999975 730.24265,220.124975 729.40115,221.762475 C729.05415,222.441975 728.85515,223.204975 728.85515,224.012475 C728.85515,224.819975 729.05415,225.582975 729.40115,226.262475 C730.24265,227.899975 731.97165,229.024975 733.97365,229.024975 C735.35565,229.024975 736.5159,228.579475 737.36315,227.810725 C738.33015,226.936475 738.8874,225.649975 738.8874,224.123725 C738.8874,223.711725 738.8534,223.410975 738.7794,223.098975 L733.97365,223.098975 L733.97365,224.959225 L736.7944,224.959225 C736.73765,225.421475 736.43065,226.117725 735.74815,226.585475 C735.3159,226.880725 734.73565,227.086725 733.97365,227.086725 C732.62015,227.086725 731.47115,226.212475 731.06165,225.003725 C730.95365,224.691975 730.89115,224.357725 730.89115,224.012475 Z M745,223 L743.25,223 L743.25,221.25 L742,221.25 L742,223 L740.25,223 L740.25,224.25 L742,224.25 L742,226 L743.25,226 L743.25,224.25 L745,224.25 L745,223 Z" id="Combined-Shape"></path>
        </g>
    </g>
</svg>