<?xml version="1.0" encoding="UTF-8"?>
<svg width="18px" height="16px" viewBox="0 0 18 16" version="1.1" xmlns="http://www.w3.org/2000/svg" xmlns:xlink="http://www.w3.org/1999/xlink">
    <!-- Generator: Sketch Beta 43 (38998) - http://www.bohemiancoding.com/sketch -->
    <title>Group 7</title>
    <desc>Created with Sketch Beta.</desc>
    <defs></defs>
    <g id="Page-1" stroke="none" stroke-width="1" fill="none" fill-rule="evenodd">
        <g id="Digital-Wall-1" transform="translate(-267.000000, -903.000000)" stroke="#6EAB24">
            <g id="Group-7" transform="translate(267.000000, 904.000000)">
                <path d="M5.20851816,7.43969232 L6.38292326,6.88909373 L8.66721107,2.99995251 L8.649756,0.573243652 C8.649756,0.573243652 9.05803857,1.14823527e-16 9.62591043,0 C10.1937823,0 10.6057221,0.412559151 10.6057221,0.412559151 C10.6057221,0.412559151 11.2561171,2.03008256 11.2561171,3.4086132 C11.2561171,4.78714384 11.0598866,5.87159473 11.0598866,5.87159473 L15.8826435,5.87159473 C15.8826435,5.87159473 16.9791528,6.07024687 16.9791528,6.95638461 C16.9791528,7.84252234 16.1645825,8.16168786 16.1645825,8.16168786 C16.1645825,8.16168786 16.6799229,8.7583223 16.3851814,9.29698827 C16.09044,9.83565425 15.4085283,10.1634642 15.4085283,10.1634642 C15.4085283,10.1634642 16.1183681,10.9662087 15.7634482,11.4436857 C15.4085283,11.9211628 14.9600159,12.1506637 14.9600159,12.1506637 C14.9600159,12.1506637 15.4457658,13.1159571 15.0921758,13.5439407 C14.7385858,13.9719242 14.3815047,14.2761738 14.0598326,14.2761738 C13.7381605,14.2761738 7.19358038,14.2761738 7.19358038,14.2761738 L6.15035513,13.7386943 L5.30191101,13.7386943 L5.30191101,7.80296329 C5.30191101,7.66993133 5.26800141,7.54628629 5.20851816,7.43969232 Z" id="Combined-Shape"></path>
                <path d="M0.505986274,7.03506307 C0.496964542,6.91409152 0.571067471,6.83333333 0.688488293,6.83333333 L4.67503072,6.83333333 C4.80583196,6.83333333 4.91125437,6.93897667 4.91125437,7.07224846 L4.91125437,14.2610849 C4.91125437,14.3926394 4.80469734,14.5 4.68031594,14.5 L1.32953966,14.5 C1.18823067,14.5 1.05325199,14.3732978 1.04211027,14.2238995 L0.505986274,7.03506307 L0.505986274,7.03506307 Z" id="Rectangle-4"></path>
            </g>
        </g>
    </g>
</svg>