<?xml version="1.0" encoding="UTF-8"?>
<svg width="22px" height="22px" viewBox="0 0 22 22" version="1.1" xmlns="http://www.w3.org/2000/svg" xmlns:xlink="http://www.w3.org/1999/xlink">
    <!-- Generator: Sketch Beta 43 (38998) - http://www.bohemiancoding.com/sketch -->
    <title>Combined Shape</title>
    <desc>Created with Sketch Beta.</desc>
    <defs></defs>
    <g id="Page-1" stroke="none" stroke-width="1" fill="none" fill-rule="evenodd">
        <g id="Digital-Wall-Post" transform="translate(-800.000000, -213.000000)" fill="#007BB6">
            <path d="M800,214.576342 C800,213.705746 800.727789,213 801.625606,213 L820.373951,213 C821.271769,213 822,213.705746 822,214.576342 L822,233.424098 C822,234.294401 821.271769,235 820.373951,235 L801.625606,235 C800.727789,235 800,234.294401 800,233.424098 L800,214.576342 Z M805.007322,220.126009 C806.165939,220.126009 806.887234,219.362918 806.887234,218.40931 C806.865537,217.435023 806.165939,216.693051 805.029314,216.693051 C803.892688,216.693051 803.14955,217.435023 803.14955,218.40931 C803.14955,219.362918 803.870696,220.126009 804.985626,220.126009 L805.007322,220.126009 Z M803.345703,231.416184 L806.668351,231.416184 L806.668351,221.481916 L803.345703,221.481916 L803.345703,231.416184 Z M808.507364,231.416154 L811.830308,231.416154 L811.830308,225.868452 C811.830308,225.571605 811.852004,225.274904 811.939675,225.062975 C812.179812,224.469573 812.72665,223.855052 813.64454,223.855052 C814.847288,223.855052 815.328003,224.766274 815.328003,226.101501 L815.328003,231.416154 L818.650652,231.416154 L818.650652,225.719882 C818.650652,222.668836 817.011172,221.248838 814.824854,221.248838 C813.032318,221.248838 812.245491,222.244684 811.808316,222.922858 L811.830308,222.922858 L811.830308,221.481886 L808.507364,221.481886 C808.551052,222.413934 808.507364,231.416154 808.507364,231.416154 Z" id="Combined-Shape"></path>
        </g>
    </g>
</svg>