<?xml version="1.0" encoding="UTF-8"?>
<svg width="22px" height="22px" viewBox="0 0 22 22" version="1.1" xmlns="http://www.w3.org/2000/svg" xmlns:xlink="http://www.w3.org/1999/xlink">
    <!-- Generator: Sketch Beta 43 (38998) - http://www.bohemiancoding.com/sketch -->
    <title>Combined Shape</title>
    <desc>Created with Sketch Beta.</desc>
    <defs></defs>
    <g id="Page-1" stroke="none" stroke-width="1" fill="none" fill-rule="evenodd">
        <g id="Digital-Wall-Post" transform="translate(-837.000000, -213.000000)" fill="#6EAB24">
            <path d="M858.870113,234.042218 C858.622062,234.60531 858.045437,235 857.373951,235 L838.625606,235 C837.954142,235 837.37778,234.605335 837.129841,234.042272 L844.711905,225.31141 L848,228.364641 L851.288095,225.31141 L858.870113,234.042218 Z M859,231.141548 L852.754494,223.949753 L859,218.150355 L859,231.141548 Z M837,231.141548 L837,218.150355 L843.245506,223.949753 L837,231.141548 Z M859,215.421073 L848,225.635359 L837,215.421073 L837,214.576342 C837,213.705746 837.727789,213 838.625606,213 L857.373951,213 C858.271769,213 859,213.705746 859,214.576342 L859,215.421073 Z" id="Combined-Shape"></path>
        </g>
    </g>
</svg>