<?xml version="1.0" encoding="UTF-8"?>
<svg width="22px" height="22px" viewBox="0 0 22 22" version="1.1" xmlns="http://www.w3.org/2000/svg" xmlns:xlink="http://www.w3.org/1999/xlink">
    <!-- Generator: Sketch Beta 43 (38998) - http://www.bohemiancoding.com/sketch -->
    <title>Pinterest Icon</title>
    <desc>Created with Sketch Beta.</desc>
    <defs></defs>
    <g id="Page-1" stroke="none" stroke-width="1" fill="none" fill-rule="evenodd">
        <g id="Digital-Wall-Post" transform="translate(-763.000000, -213.000000)" fill="#CB2028">
            <path d="M774.000361,213 C767.925407,213 763,217.924926 763,224.0002 C763,228.504499 765.708577,232.374009 769.584421,234.075359 C769.553471,233.30723 769.578888,232.385154 769.775892,231.549433 C769.987408,230.656463 771.191318,225.555461 771.191318,225.555461 C771.191318,225.555461 770.839887,224.85316 770.839887,223.814984 C770.839887,222.184914 771.784734,220.967454 772.961382,220.967454 C773.961874,220.967454 774.445282,221.718986 774.445282,222.618851 C774.445282,223.624715 773.803758,225.129222 773.473816,226.522678 C773.198235,227.689545 774.058893,228.641287 775.210044,228.641287 C777.294255,228.641287 778.697895,225.964462 778.697895,222.792843 C778.697895,220.381976 777.074079,218.577434 774.120712,218.577434 C770.783921,218.577434 768.705162,221.065835 768.705162,223.845372 C768.705162,224.803689 768.987718,225.47961 769.430314,226.002868 C769.633892,226.24333 769.662116,226.340027 769.58843,226.616008 C769.535671,226.818384 769.414518,227.305721 769.364326,227.498795 C769.291121,227.777342 769.065413,227.877007 768.813566,227.774055 C767.276666,227.146643 766.560815,225.463574 766.560815,223.571556 C766.560815,220.446842 769.196267,216.699928 774.422671,216.699928 C778.622365,216.699928 781.386506,219.739009 781.386506,223.001312 C781.386506,227.316465 778.987506,230.540282 775.451227,230.540282 C774.263593,230.540282 773.146519,229.898276 772.763817,229.169195 C772.763817,229.169195 772.12518,231.70362 771.989915,232.193042 C771.756751,233.041191 771.300203,233.888779 770.882783,234.549466 C771.872211,234.841563 772.917203,235.000561 774.000361,235.000561 C780.074834,235.000561 785,230.075556 785,224.0002 C785,217.924926 780.074834,213 774.000361,213" id="Pinterest-Icon"></path>
        </g>
    </g>
</svg>