<?xml version="1.0" encoding="UTF-8"?>
<svg width="11px" height="14px" viewBox="0 0 11 14" version="1.1" xmlns="http://www.w3.org/2000/svg" xmlns:xlink="http://www.w3.org/1999/xlink">
    <!-- Generator: Sketch Beta 43 (38998) - http://www.bohemiancoding.com/sketch -->
    <title>Page 1</title>
    <desc>Created with Sketch Beta.</desc>
    <defs></defs>
    <g id="Page-1" stroke="none" stroke-width="1" fill="none" fill-rule="evenodd">
        <g id="Digital-Wall-Post" transform="translate(-590.000000, -220.000000)" stroke="#006150">
            <g id="Group-3" transform="translate(542.000000, 219.000000)">
                <g id="Page-1" transform="translate(53.500000, 8.000000) scale(-1, 1) translate(-53.500000, -8.000000) translate(49.000000, 2.000000)">
                    <path d="M3.53472258,8.7367644 L5.39525691,7.2531786 M5.33553901,4.70497137 L3.54074757,3.27380879" id="Stroke-1"></path>
                    <path d="M2.02419512,4.11052696 C3.14213415,4.11052696 4.04839024,3.19449615 4.04839024,2.06451772 C4.04839024,0.934502311 3.14213415,0.0184714946 2.02419512,0.0184714946 C0.906256098,0.0184714946 0,0.934502311 0,2.06451772 C0,3.19449615 0.906256098,4.11052696 2.02419512,4.11052696" id="Fill-3" stroke-linecap="round" stroke-linejoin="round"></path>
                    <path d="M4.04839024,9.94125116 C4.04839024,8.81123575 3.14213415,7.89520493 2.02419512,7.89520493 C0.906256098,7.89520493 0,8.81123575 0,9.94125116 C0,11.0712296 0.906256098,11.9872604 2.02419512,11.9872604 C3.14213415,11.9872604 4.04839024,11.0712296 4.04839024,9.94125116 Z" id="Fill-6" stroke-linecap="round" stroke-linejoin="round"></path>
                    <path d="M6.96321951,8.04889368 C8.08115854,8.04889368 8.98741463,7.13286287 8.98741463,6.00288444 C8.98741463,4.87286903 8.08115854,3.95683821 6.96321951,3.95683821 C5.84528049,3.95683821 4.93902439,4.87286903 4.93902439,6.00288444 C4.93902439,7.13286287 5.84528049,8.04889368 6.96321951,8.04889368" id="Fill-8" stroke-linecap="round" stroke-linejoin="round"></path>
                </g>
            </g>
        </g>
    </g>
</svg>