<?xml version="1.0" encoding="UTF-8"?>
<svg width="22px" height="18px" viewBox="0 0 22 18" version="1.1" xmlns="http://www.w3.org/2000/svg" xmlns:xlink="http://www.w3.org/1999/xlink">
    <!-- Generator: Sketch Beta 43 (38998) - http://www.bohemiancoding.com/sketch -->
    <title>Group 3 Copy</title>
    <desc>Created with Sketch Beta.</desc>
    <defs></defs>
    <g id="Page-1" stroke="none" stroke-width="1" fill="none" fill-rule="evenodd">
        <g id="Digital-Wall-1" transform="translate(-494.000000, -1538.000000)">
            <g id="Group-3-Copy" transform="translate(494.000000, 1535.000000)">
                <rect id="Rectangle-3" x="0" y="0" width="22" height="22"></rect>
                <path d="M6.91856,20.8095238 C15.22048,20.8095238 19.76128,13.9571338 19.76128,8.01477208 C19.76128,7.82014176 19.76128,7.62638815 19.74808,7.43351126 C20.6314516,6.79693935 21.3939928,6.00874665 22,5.10583784 C21.1762136,5.46950001 20.3023298,5.70798955 19.40752,5.81334535 C20.3497747,5.25135649 21.0549887,4.36744546 21.39192,3.32611014 C20.5058986,3.84990707 19.5365686,4.21905303 18.52576,4.41761802 C17.1266328,2.93544175 14.903433,2.57267389 13.1028034,3.53273383 C11.3021737,4.49279378 10.371922,6.53691927 10.83368,8.51888214 C7.20446825,8.33762129 3.82313869,6.62984871 1.5312,3.82057636 C0.333188026,5.87528051 0.945109338,8.50385482 2.92864,9.82343131 C2.21033226,9.80222147 1.50768585,9.60917417 0.88,9.26058146 L0.88,9.31756782 C0.880587957,11.4581445 2.39514131,13.3018216 4.5012,13.7256815 C3.83668524,13.9062319 3.13947092,13.9326247 2.46312,13.8028323 C3.05443418,15.6346568 4.74898561,16.8895498 6.68008,16.9256845 C5.08176683,18.1771329 3.10733237,18.8564942 1.07448,18.8544535 C0.715355141,18.8537666 0.356579577,18.8321039 -2.30926389e-14,18.7895767 C2.06415964,20.1092725 4.46592379,20.8092756 6.91856,20.806017" id="Twitter" fill="#1B95E0"></path>
            </g>
        </g>
    </g>
</svg>